<?xml version="1.0" encoding="UTF-8"?>
<!DOCTYPE svg PUBLIC "-//W3C//DTD SVG 1.1//EN" "http://www.w3.org/Graphics/SVG/1.1/DTD/svg11.dtd">
<svg
    version="1.1"
    xmlns="http://www.w3.org/2000/svg"
    xmlns:xlink="http://www.w3.org/1999/xlink"
    viewBox="0 0 54.682 57.14"
>
<style>
use, use:target ~ .default {
    display: none;
}

.default {
    fill: #0366d6 !important;
    display: block;
}

use:target {
    display: block;
}

#gray:target { fill: #c0c0c0 !important; }
#white:target { fill: #ffffff !important; }
</style>
<defs>
    <g id="icon">
        <g>
            <path class="cls-1" d="M18.467,17.422h.885a2.625,2.625,0,0,0,2.557,1.869,2.657,2.657,0,0,0,2.557-1.869h5.016a2.625,2.625,0,0,0,2.557,1.869A2.657,2.657,0,0,0,34.6,17.422h.885a1.867,1.867,0,0,0,1.869-1.869V13.095a1.867,1.867,0,0,0-1.869-1.869H34.2l-2.36-3.344A2.238,2.238,0,0,0,29.974,6.9H27.22a.832.832,0,0,0-.688,0H23.876a2.238,2.238,0,0,0-1.869.983l-2.459,3.344h-1.18A1.867,1.867,0,0,0,16.5,13.095v2.459A1.953,1.953,0,0,0,18.467,17.422Zm11.507-8.95a.7.7,0,0,1,.59.3l1.77,2.557H27.81V8.472ZM34.3,12.9H35.58a.212.212,0,0,1,.2.2v2.459a.212.212,0,0,1-.2.2h-.885a2.6,2.6,0,0,0-2.459-1.869h-.1A2.657,2.657,0,0,0,29.58,15.75H24.663a3.12,3.12,0,0,0-2.754-1.869,2.878,2.878,0,0,0-2.655,1.869h-.885a.212.212,0,0,1-.2-.2V13.095a.212.212,0,0,1,.2-.2h1.18c.1,0,.2.1.3.1H33.908A.743.743,0,0,1,34.3,12.9Zm-2.262,2.557a1.082,1.082,0,1,1-1.082,1.082A1.091,1.091,0,0,1,32.039,15.455Zm-10.13,0a1.082,1.082,0,1,1-1.082,1.082A1.032,1.032,0,0,1,21.909,15.455Zm1.967-6.983h2.262v2.754H21.516l1.77-2.557A1.4,1.4,0,0,1,23.876,8.472Z" transform="translate(-0.273 -0.113)"/>
            <path class="cls-1" d="M35.047,25.7H21.18a1.18,1.18,0,1,0,0,2.36H35.047a1.136,1.136,0,0,0,1.18-1.18A1.2,1.2,0,0,0,35.047,25.7Z" transform="translate(-0.33 -0.425)"/>
            <path class="cls-1" d="M35.279,31a1.2,1.2,0,0,0-.885.393,1.192,1.192,0,0,0,0,1.77,1.247,1.247,0,0,0,.885.393,1.068,1.068,0,0,0,.885-.393,1.247,1.247,0,0,0,.393-.885,1.068,1.068,0,0,0-.393-.885A1.767,1.767,0,0,0,35.279,31Z" transform="translate(-0.562 -0.512)"/>
            <path class="cls-1" d="M30.425,31H21.18a1.18,1.18,0,1,0,0,2.36h9.245a1.18,1.18,0,0,0,0-2.36Z" transform="translate(-0.33 -0.512)"/>
            <animateTransform attributeName="transform"
            type="translate"
            from="0 5"
            to="0 0"
            begin="0s"
            dur="2s"
            repeatCount="indefinite"
            />
        </g>

        <path class="cls-1" d="M27.779,45.357a1.2,1.2,0,0,0,.885-.393,1.247,1.247,0,0,0,.393-.885,1.2,1.2,0,0,0-.393-.885,1.247,1.247,0,0,0-.885-.393A1.349,1.349,0,0,0,26.5,44.079a1.2,1.2,0,0,0,.393.885A1.465,1.465,0,0,0,27.779,45.357Z" transform="translate(-0.438 -0.707)"/>
        <path class="cls-1" d="M51.338,6.393H44.257V2.36A2.393,2.393,0,0,0,41.9,0H12.785a2.393,2.393,0,0,0-2.36,2.36V6.393H3.344A3.379,3.379,0,0,0,0,9.736V45.142a3.316,3.316,0,0,0,3.344,3.344H21.538v1.574a5.97,5.97,0,0,0-5.409,5.9,1.136,1.136,0,0,0,1.18,1.18H37.372a1.136,1.136,0,0,0,1.18-1.18,5.97,5.97,0,0,0-5.409-5.9V48.486H51.338a3.316,3.316,0,0,0,3.344-3.344V9.736A3.519,3.519,0,0,0,51.338,6.393ZM2.36,9.736a.97.97,0,0,1,.983-.885h7.081v7.966a1.18,1.18,0,1,0,2.36,0V2.36H41.9v36H12.785V25.472a1.18,1.18,0,1,0-2.36,0V38.356H2.36ZM35.9,54.682H18.686a3.618,3.618,0,0,1,3.344-2.36H32.553A3.52,3.52,0,0,1,35.9,54.682Zm-5.114-4.819H23.9V48.387h6.884v1.475Zm21.44-4.721a.881.881,0,0,1-.885.885H3.344a.881.881,0,0,1-.885-.885V40.814H52.321v4.327Zm0-6.786H44.257V8.851h7.081a.881.881,0,0,1,.885.885Z"/>
        <path class="cls-1" d="M11.779,22.357a1.2,1.2,0,0,0,.885-.393,1.247,1.247,0,0,0,.393-.885,1.2,1.2,0,0,0-.393-.885,1.247,1.247,0,0,0-.885-.393,1.2,1.2,0,0,0-.885.393,1.247,1.247,0,0,0-.393.885,1.2,1.2,0,0,0,.393.885A.959.959,0,0,0,11.779,22.357Z" transform="translate(-0.173 -0.327)"/>
    </g>
</defs>

<g>
    <use xlink:href="#icon" id="gray"></use>
    <use xlink:href="#icon" id="white"></use>
    <use xlink:href="#icon" class="default"></use>
</g>
</svg>
